<svg viewBox="0 0 400 220" xmlns="http://www.w3.org/2000/svg">
<defs><clipPath id="r2"><rect width="400" height="220" rx="16"/></clipPath></defs>
<g clip-path="url(#r2)">
<rect width="400" height="220" fill="#0d0620"/>
<rect width="400" height="220" fill="none" stroke="#c264e8" stroke-width="1.5" rx="16"/>
<text x="24" y="32" font-family="Consolas,Monaco,monospace" font-size="16" fill="#ff9ff0" font-weight="bold">Most Used Languages</text>
<text x="24" y="52" font-family="Consolas,Monaco,monospace" font-size="13" fill="#e9c6ff">JavaScript  42%</text>
<rect x="24" y="60" width="330" height="10" rx="5" fill="#241040"/>
<rect x="24" y="60" width="0" height="10" rx="5" fill="#f1e05a">
  <animate attributeName="width" values="0;139" dur="1s" begin="0.3s" fill="freeze"/>
</rect><text x="24" y="86" font-family="Consolas,Monaco,monospace" font-size="13" fill="#e9c6ff">TypeScript  20%</text>
<rect x="24" y="94" width="330" height="10" rx="5" fill="#241040"/>
<rect x="24" y="94" width="0" height="10" rx="5" fill="#3178c6">
  <animate attributeName="width" values="0;66" dur="1s" begin="0.5s" fill="freeze"/>
</rect><text x="24" y="120" font-family="Consolas,Monaco,monospace" font-size="13" fill="#e9c6ff">HTML  16%</text>
<rect x="24" y="128" width="330" height="10" rx="5" fill="#241040"/>
<rect x="24" y="128" width="0" height="10" rx="5" fill="#e34c26">
  <animate attributeName="width" values="0;53" dur="1s" begin="0.7s" fill="freeze"/>
</rect><text x="24" y="154" font-family="Consolas,Monaco,monospace" font-size="13" fill="#e9c6ff">CSS  12%</text>
<rect x="24" y="162" width="330" height="10" rx="5" fill="#241040"/>
<rect x="24" y="162" width="0" height="10" rx="5" fill="#563d7c">
  <animate attributeName="width" values="0;40" dur="1s" begin="0.9s" fill="freeze"/>
</rect><text x="24" y="188" font-family="Consolas,Monaco,monospace" font-size="13" fill="#e9c6ff">Python  10%</text>
<rect x="24" y="196" width="330" height="10" rx="5" fill="#241040"/>
<rect x="24" y="196" width="0" height="10" rx="5" fill="#3572A5">
  <animate attributeName="width" values="0;33" dur="1s" begin="1.1s" fill="freeze"/>
</rect>
</g>
</svg>